<svg xmlns="http://www.w3.org/2000/svg" version="1.1" xmlns:xlink="http://www.w3.org/1999/xlink" xmlns:svgjs="http://svgjs.dev/svgjs" width="2000" height="186" viewBox="0 0 2000 186"><g transform="matrix(1,0,0,1,-1.2121212007660915,0.16624722448639773)"><svg viewBox="0 0 396 37" data-background-color="#003366" preserveAspectRatio="xMidYMid meet" height="186" width="2000" xmlns="http://www.w3.org/2000/svg" xmlns:xlink="http://www.w3.org/1999/xlink"><defs></defs><g id="tight-bounds" transform="matrix(1,0,0,1,0.24000000224833684,-0.033070684440843934)"><svg viewBox="0 0 395.52 37.066141260974334" height="37.066141260974334" width="395.52"><g><svg viewBox="0 0 395.52 37.066141260974334" height="37.066141260974334" width="395.52"><g transform="matrix(1,0,0,1,0,22.90836231911996)"><svg viewBox="0 0 395.52 14.157778941854374" height="14.157778941854374" width="395.52"><g><svg viewBox="0 0 395.52 14.157778941854374" height="14.157778941854374" width="395.52"><g><svg viewBox="0 0 395.52 14.157778941854374" height="14.157778941854374" width="395.52"><g transform="matrix(1,0,0,1,0,0)"><svg width="395.52" viewBox="2.490000009536743 -29.540000915527344 838.8400268554688 30.030000686645508" height="14.157778941854374" data-palette-color="#ffffff"><path d="M11.08 0.44L11.08 0.44Q8.98 0.44 6.64-0.1 4.3-0.63 2.78-1.51L2.78-1.51 2.49-8.15 4.93-8.35 6.4-3.76Q7.57-3.03 8.96-2.64 10.35-2.25 11.82-2.25L11.82-2.25Q14.16-2.25 15.5-3.32 16.85-4.39 16.85-6.25L16.85-6.25Q16.85-8.01 15.82-9.11 14.79-10.21 13.18-11.01 11.57-11.82 9.74-12.6 7.91-13.38 6.3-14.43 4.69-15.48 3.66-17.02 2.64-18.55 2.64-20.9L2.64-20.9Q2.64-23.34 4-25.22 5.37-27.1 7.84-28.15 10.3-29.2 13.53-29.2L13.53-29.2Q14.75-29.2 15.97-29.05 17.19-28.91 18.29-28.64 19.38-28.37 20.26-27.98L20.26-27.98 20.7-21.53 18.26-21.34 16.85-25.68Q15.28-26.61 12.99-26.61L12.99-26.61Q10.64-26.61 9.23-25.46 7.81-24.32 7.81-22.41L7.81-22.41Q7.81-20.7 8.84-19.56 9.86-18.41 11.5-17.55 13.13-16.7 14.99-15.92 16.85-15.14 18.48-14.11 20.12-13.09 21.14-11.6 22.17-10.11 22.17-7.86L22.17-7.86Q22.17-5.47 20.75-3.59 19.34-1.71 16.85-0.63 14.36 0.44 11.08 0.44ZM50.1-7.13L48.04 0.29Q46.68 0.1 45.31 0.05 43.94 0 42.77 0L42.77 0 25.97 0 25.83-2.05 28.85-2.73Q28.95-2.98 29.03-3.91 29.1-4.83 29.12-6.4 29.15-7.96 29.15-10.06L29.15-10.06 29.15-18.55Q29.15-20.7 29.12-22.29 29.1-23.88 29.03-24.8 28.95-25.73 28.85-25.93L28.85-25.93 25.83-26.61 25.97-28.66 41.5-28.66Q42.23-28.66 43.21-28.69 44.19-28.71 45.21-28.76 46.24-28.81 47.17-28.91L47.17-28.91 48.24-22.17 45.85-21.83 44.14-25.98Q43.65-26.07 43.19-26.12 42.72-26.17 42.14-26.17L42.14-26.17 37.2-26.17Q36.28-26.17 35.52-26.15 34.76-26.12 34.13-26.03L34.13-26.03Q34.13-25.73 34.1-24.88 34.08-24.02 34.06-22.83 34.03-21.63 34.03-20.31L34.03-20.31 34.03-8.11Q34.03-6.93 34.06-5.86 34.08-4.79 34.1-4 34.13-3.22 34.13-2.88L34.13-2.88Q34.91-2.78 35.72-2.73 36.52-2.69 37.64-2.69L37.64-2.69 41.7-2.69Q42.82-2.69 43.48-2.71 44.14-2.73 44.5-2.78 44.87-2.83 45.16-2.88L45.16-2.88 47.75-7.57 50.1-7.13ZM44.63-9.91L42.38-9.91 41.84-13.23Q41.55-13.28 40.92-13.33 40.28-13.38 39.4-13.38L39.4-13.38 36.08-13.38Q35.35-13.38 34.59-13.35 33.84-13.33 33.2-13.28L33.2-13.28 33.2-16.16Q33.84-16.11 34.59-16.11 35.35-16.11 36.08-16.11L36.08-16.11 39.4-16.11Q40.28-16.11 40.92-16.14 41.55-16.16 41.84-16.16L41.84-16.16 42.38-19.53 44.63-19.53 44.63-9.91ZM66.01 0.15L63.81 0.15 52.92-25.93 50.43-26.66 50.58-28.66 61.57-28.66 61.71-26.61 58.69-25.93 66.99-5.37 65.67-5.37 73.38-25.93 69.97-26.61 70.11-28.66 79.44-28.66 79.54-26.66 77.09-25.93 66.01 0.15ZM86.17 0L77.58 0 77.43-2.05 79.92-2.73 89.89-27.64 93.16-29.54 104-2.73 106.44-2.05 106.29 0 95.4 0 95.31-2.05 98.33-2.73 95.5-9.72 94.96-11.28 89.79-23.97 91.01-24.27 86.27-11.33 85.73-9.86 83.24-2.73 86.27-2.05 86.17 0ZM84.71-8.79L84.71-8.79 84.71-11.62Q85.64-11.57 87.1-11.5 88.57-11.43 90.81-11.43L90.81-11.43Q93.01-11.43 94.52-11.5 96.04-11.57 96.92-11.62L96.92-11.62 96.92-8.84Q95.5-8.84 93.96-8.89 92.42-8.94 90.81-8.94L90.81-8.94Q89.2-8.94 87.71-8.89 86.22-8.84 84.71-8.79ZM124.4 0L115.81 0 115.66-2.05 118.15-2.73 128.11-27.64 131.38-29.54 142.22-2.73 144.67-2.05 144.52 0 133.63 0 133.53-2.05 136.56-2.73 133.73-9.72 133.19-11.28 128.01-23.97 129.24-24.27 124.5-11.33 123.96-9.86 121.47-2.73 124.5-2.05 124.4 0ZM122.94-8.79L122.94-8.79 122.94-11.62Q123.86-11.57 125.33-11.5 126.79-11.43 129.04-11.43L129.04-11.43Q131.24-11.43 132.75-11.5 134.26-11.57 135.14-11.62L135.14-11.62 135.14-8.84Q133.73-8.84 132.19-8.89 130.65-8.94 129.04-8.94L129.04-8.94Q127.43-8.94 125.94-8.89 124.45-8.84 122.94-8.79ZM170.59-7.67L169.37-7.67 169.37-17.48Q169.37-20.17 169.35-21.97 169.32-23.78 169.25-24.76 169.17-25.73 169.08-25.93L169.08-25.93 165.76-26.61 165.9-28.66 175.52-28.66 175.67-26.61 172.64-25.93Q172.59-25.73 172.52-24.76 172.45-23.78 172.4-21.97 172.35-20.17 172.35-17.48L172.35-17.48 172.35-6.59Q172.35-4.83 172.37-3.15 172.4-1.46 172.4 0.24L172.4 0.24 169.96 0.24 151.45-23.44 153.01-23.49 153.01-11.47Q153.01-8.64 153.06-6.79 153.11-4.93 153.18-3.96 153.26-2.98 153.31-2.73L153.31-2.73 156.67-2.05 156.53 0 146.76 0 146.62-2.05 149.64-2.73Q149.74-2.98 149.79-3.98 149.84-4.98 149.89-6.86 149.94-8.74 149.94-11.47L149.94-11.47 149.94-19.24Q149.94-21.19 149.89-22.61 149.84-24.02 149.79-24.85 149.74-25.68 149.64-25.93L149.64-25.93 146.62-26.61 146.76-28.66 153.79-28.66 170.59-7.67ZM179.77-26.61L179.91-28.66 192.27-28.66Q200.03-28.66 204.4-24.98 208.77-21.29 208.77-14.7L208.77-14.7Q208.77-10.4 206.72-7.08 204.67-3.76 201.08-1.88 197.49 0 192.8 0L192.8 0 179.91 0 179.77-2.05 182.8-2.73Q182.94-3.17 183.01-5.25 183.09-7.32 183.09-10.06L183.09-10.06 183.09-18.55Q183.09-21.53 183.01-23.56 182.94-25.59 182.8-25.93L182.8-25.93 179.77-26.61ZM188.12-25.83L188.12-25.83Q188.12-25.39 188.09-24.58 188.07-23.78 188.04-22.34 188.02-20.9 188.02-18.55L188.02-18.55 188.02-10.06Q188.02-8.64 188.04-7.32 188.07-6.01 188.14-4.93 188.21-3.86 188.26-3.17L188.26-3.17Q189.68-2.98 190.88-2.86 192.07-2.73 193.2-2.73L193.2-2.73Q198.03-2.73 200.54-5.37 203.06-8.01 203.06-13.18L203.06-13.18Q203.06-16.5 202.28-18.92 201.5-21.34 200.01-22.95 198.52-24.56 196.44-25.37 194.37-26.17 191.73-26.17L191.73-26.17Q190.9-26.17 190-26.1 189.09-26.03 188.12-25.83ZM231.91 0.44L231.91 0.44Q229.81 0.44 227.47-0.1 225.12-0.63 223.61-1.51L223.61-1.51 223.32-8.15 225.76-8.35 227.22-3.76Q228.4-3.03 229.79-2.64 231.18-2.25 232.64-2.25L232.64-2.25Q234.99-2.25 236.33-3.32 237.67-4.39 237.67-6.25L237.67-6.25Q237.67-8.01 236.65-9.11 235.62-10.21 234.01-11.01 232.4-11.82 230.57-12.6 228.74-13.38 227.13-14.43 225.51-15.48 224.49-17.02 223.46-18.55 223.46-20.9L223.46-20.9Q223.46-23.34 224.83-25.22 226.2-27.1 228.66-28.15 231.13-29.2 234.35-29.2L234.35-29.2Q235.57-29.2 236.79-29.05 238.01-28.91 239.11-28.64 240.21-28.37 241.09-27.98L241.09-27.98 241.53-21.53 239.09-21.34 237.67-25.68Q236.11-26.61 233.82-26.61L233.82-26.61Q231.47-26.61 230.06-25.46 228.64-24.32 228.64-22.41L228.64-22.41Q228.64-20.7 229.67-19.56 230.69-18.41 232.33-17.55 233.96-16.7 235.82-15.92 237.67-15.14 239.31-14.11 240.94-13.09 241.97-11.6 243-10.11 243-7.86L243-7.86Q243-5.47 241.58-3.59 240.16-1.71 237.67-0.63 235.18 0.44 231.91 0.44ZM275.71 0L264.38 0 264.28-2.05 267.26-2.73Q267.36-2.98 267.43-3.86 267.5-4.74 267.53-6.3 267.55-7.86 267.55-10.06L267.55-10.06 267.55-18.55Q267.55-20.85 267.53-22.41 267.5-23.97 267.43-24.85 267.36-25.73 267.26-25.93L267.26-25.93 264.28-26.61 264.38-28.66 275.71-28.66 275.85-26.61 272.83-25.93Q272.73-25.73 272.66-24.83 272.58-23.93 272.56-22.36 272.53-20.8 272.53-18.55L272.53-18.55 272.53-10.06Q272.53-7.91 272.56-6.35 272.58-4.79 272.66-3.88 272.73-2.98 272.83-2.73L272.83-2.73 275.85-2.05 275.71 0ZM258.08 0L246.8 0 246.7-2.05 249.73-2.73Q249.83-2.98 249.88-3.91 249.93-4.83 249.95-6.4 249.98-7.96 249.98-10.06L249.98-10.06 249.98-18.55Q249.98-20.7 249.95-22.29 249.93-23.88 249.88-24.8 249.83-25.73 249.73-25.93L249.73-25.93 246.7-26.61 246.8-28.66 258.08-28.66 258.23-26.61 255.2-25.93Q255.1-25.73 255.03-24.85 254.96-23.97 254.93-22.41 254.91-20.85 254.91-18.55L254.91-18.55 254.91-10.06Q254.91-7.86 254.93-6.3 254.96-4.74 255.03-3.86 255.1-2.98 255.2-2.73L255.2-2.73 258.23-2.05 258.08 0ZM254.17-13.13L254.17-13.13 254.17-16.31Q255.2-16.16 256.96-16.11 258.72-16.06 261.3-16.06L261.3-16.06Q263.84-16.06 265.58-16.11 267.31-16.16 268.29-16.31L268.29-16.31 268.29-13.13Q267.21-13.23 265.58-13.28 263.94-13.33 261.3-13.33L261.3-13.33Q258.57-13.33 256.91-13.28 255.25-13.23 254.17-13.13ZM304.12-7.13L302.07 0.29Q300.7 0.1 299.34 0.05 297.97 0 296.8 0L296.8 0 280 0 279.86-2.05 282.88-2.73Q282.98-2.98 283.05-3.91 283.13-4.83 283.15-6.4 283.18-7.96 283.18-10.06L283.18-10.06 283.18-18.55Q283.18-20.7 283.15-22.29 283.13-23.88 283.05-24.8 282.98-25.73 282.88-25.93L282.88-25.93 279.86-26.61 280-28.66 295.53-28.66Q296.26-28.66 297.24-28.69 298.21-28.71 299.24-28.76 300.27-28.81 301.19-28.91L301.19-28.91 302.27-22.17 299.87-21.83 298.17-25.98Q297.68-26.07 297.21-26.12 296.75-26.17 296.16-26.17L296.16-26.17 291.23-26.17Q290.3-26.17 289.55-26.15 288.79-26.12 288.16-26.03L288.16-26.03Q288.16-25.73 288.13-24.88 288.11-24.02 288.08-22.83 288.06-21.63 288.06-20.31L288.06-20.31 288.06-8.11Q288.06-6.93 288.08-5.86 288.11-4.79 288.13-4 288.16-3.22 288.16-2.88L288.16-2.88Q288.94-2.78 289.74-2.73 290.55-2.69 291.67-2.69L291.67-2.69 295.72-2.69Q296.85-2.69 297.51-2.71 298.17-2.73 298.53-2.78 298.9-2.83 299.19-2.88L299.19-2.88 301.78-7.57 304.12-7.13ZM298.65-9.91L296.41-9.91 295.87-13.23Q295.58-13.28 294.94-13.33 294.31-13.38 293.43-13.38L293.43-13.38 290.11-13.38Q289.38-13.38 288.62-13.35 287.86-13.33 287.23-13.28L287.23-13.28 287.23-16.16Q287.86-16.11 288.62-16.11 289.38-16.11 290.11-16.11L290.11-16.11 293.43-16.11Q294.31-16.11 294.94-16.14 295.58-16.16 295.87-16.16L295.87-16.16 296.41-19.53 298.65-19.53 298.65-9.91ZM330.78-7.62L328.68 0.24Q327.8 0.2 326.75 0.15 325.7 0.1 324.7 0.05 323.7 0 322.97 0L322.97 0 307.64 0 307.49-2.05 310.57-2.73Q310.61-2.98 310.66-3.93 310.71-4.88 310.74-6.45 310.76-8.01 310.76-10.06L310.76-10.06 310.76-18.55Q310.76-20.65 310.76-22.22 310.76-23.78 310.71-24.73 310.66-25.68 310.57-25.88L310.57-25.88 307.49-26.61 307.64-28.66 319.94-28.66 320.09-26.51 316.03-25.88Q315.99-25.73 315.91-24.85 315.84-23.97 315.79-22.39 315.74-20.8 315.74-18.55L315.74-18.55 315.74-10.06Q315.74-7.42 315.79-5.59 315.84-3.76 315.89-3.17L315.89-3.17Q316.62-3.08 317.4-3.03 318.18-2.98 319.26-2.98L319.26-2.98 322.28-2.98Q323.41-2.98 324.21-3.05 325.02-3.13 325.7-3.22L325.7-3.22 328.34-8.2 330.78-7.62ZM353.63-28.91L353.63-28.91 354.75-20.75 352.26-20.51 350.31-26.03Q349.82-26.12 349.31-26.15 348.8-26.17 348.36-26.17L348.36-26.17 346.6-26.17Q346.16-26.17 345.4-26.17 344.65-26.17 344.11-26.07L344.11-26.07Q344.11-25.73 344.08-24.29 344.06-22.85 344.03-20.87 344.01-18.9 344.01-16.99L344.01-16.99 344.01-11.08Q344.01-8.11 344.06-5.86 344.11-3.61 344.16-2.73L344.16-2.73 348.31-2.15 348.21 0 334.88 0 334.73-2.15 338.88-2.73Q338.93-3.61 338.98-5.86 339.03-8.11 339.03-11.08L339.03-11.08 339.03-16.99Q339.03-18.9 339.01-20.87 338.98-22.85 338.98-24.29 338.98-25.73 338.93-26.07L338.93-26.07Q338.44-26.17 337.69-26.17 336.93-26.17 336.44-26.17L336.44-26.17 334.64-26.17Q334.15-26.17 333.66-26.15 333.17-26.12 332.68-26.03L332.68-26.03 330.73-20.41 328.29-20.7 329.31-28.91Q329.85-28.86 330.53-28.81 331.22-28.76 331.97-28.74 332.73-28.71 333.44-28.69 334.15-28.66 334.73-28.66L334.73-28.66 348.21-28.66Q348.8-28.66 349.5-28.69 350.21-28.71 350.94-28.74 351.68-28.76 352.36-28.81 353.04-28.86 353.63-28.91ZM381.75-7.13L379.7 0.29Q378.33 0.1 376.97 0.05 375.6 0 374.43 0L374.43 0 357.63 0 357.48-2.05 360.51-2.73Q360.61-2.98 360.68-3.91 360.76-4.83 360.78-6.4 360.8-7.96 360.8-10.06L360.8-10.06 360.8-18.55Q360.8-20.7 360.78-22.29 360.76-23.88 360.68-24.8 360.61-25.73 360.51-25.93L360.51-25.93 357.48-26.61 357.63-28.66 373.16-28.66Q373.89-28.66 374.87-28.69 375.84-28.71 376.87-28.76 377.89-28.81 378.82-28.91L378.82-28.91 379.9-22.17 377.5-21.83 375.8-25.98Q375.31-26.07 374.84-26.12 374.38-26.17 373.79-26.17L373.79-26.17 368.86-26.17Q367.93-26.17 367.18-26.15 366.42-26.12 365.79-26.03L365.79-26.03Q365.79-25.73 365.76-24.88 365.74-24.02 365.71-22.83 365.69-21.63 365.69-20.31L365.69-20.31 365.69-8.11Q365.69-6.93 365.71-5.86 365.74-4.79 365.76-4 365.79-3.22 365.79-2.88L365.79-2.88Q366.57-2.78 367.37-2.73 368.18-2.69 369.3-2.69L369.3-2.69 373.35-2.69Q374.48-2.69 375.14-2.71 375.8-2.73 376.16-2.78 376.53-2.83 376.82-2.88L376.82-2.88 379.41-7.57 381.75-7.13ZM376.28-9.91L374.04-9.91 373.5-13.23Q373.21-13.28 372.57-13.33 371.94-13.38 371.06-13.38L371.06-13.38 367.74-13.38Q367.01-13.38 366.25-13.35 365.49-13.33 364.86-13.28L364.86-13.28 364.86-16.16Q365.49-16.11 366.25-16.11 367.01-16.11 367.74-16.11L367.74-16.11 371.06-16.11Q371.94-16.11 372.57-16.14 373.21-16.16 373.5-16.16L373.5-16.16 374.04-19.53 376.28-19.53 376.28-9.91ZM396.2 0L385.36 0 385.22-2.05 388.29-2.83Q388.29-3.13 388.32-3.88 388.34-4.64 388.34-5.66 388.34-6.69 388.37-7.84 388.39-8.98 388.39-10.06L388.39-10.06 388.39-18.55Q388.39-20.75 388.37-22.31 388.34-23.88 388.27-24.8 388.19-25.73 388.1-25.93L388.1-25.93 385.07-26.61 385.22-28.66 396.54-28.66Q401.48-28.66 403.99-26.88 406.51-25.1 406.51-21.48L406.51-21.48Q406.51-19.09 405.11-17.21 403.72-15.33 401.31-14.28 398.89-13.23 395.76-13.23L395.76-13.23 392.69-13.23 392.69-15.63 395.23-15.63Q398.06-15.63 399.67-17.14 401.28-18.65 401.28-21.24L401.28-21.24Q401.28-23.73 399.91-25.02 398.55-26.32 395.91-26.32L395.91-26.32 393.37-26.32Q393.32-26.17 393.3-25.78 393.27-25.39 393.27-24.58 393.27-23.78 393.27-22.49 393.27-21.19 393.27-19.19L393.27-19.19 393.27-10.06Q393.27-8.2 393.3-6.74 393.32-5.27 393.4-4.27 393.47-3.27 393.52-2.83L393.52-2.83 396.35-2.05 396.2 0ZM409.29 0.49L409.29 0.49Q406.94 0.49 405.14-0.34 403.33-1.17 401.72-3.03 400.11-4.88 398.45-8.01L398.45-8.01 395.32-14.01 399.52-14.99 404.94-7.08Q406.21-5.27 407.29-4.17 408.36-3.08 409.44-2.49 410.51-1.9 411.73-1.61L411.73-1.61 411.68 0.29Q411.1 0.44 410.48 0.46 409.87 0.49 409.29 0.49ZM439.02 0.44L439.02 0.44Q434.63 0.44 431.11-1.2 427.59-2.83 425.52-6.08 423.44-9.33 423.44-14.06L423.44-14.06Q423.44-17.29 424.57-20.02 425.69-22.75 427.84-24.78 429.99-26.81 433.01-27.95 436.04-29.1 439.85-29.1L439.85-29.1Q441.9-29.1 444.15-28.69 446.39-28.27 448.05-27.54L448.05-27.54 448.4-20.61 445.95-20.41 444.44-25.2Q443.51-25.78 442.12-26.07 440.73-26.37 439.41-26.37L439.41-26.37Q435.99-26.37 433.8-24.85 431.6-23.34 430.52-20.78 429.45-18.21 429.45-14.99L429.45-14.99Q429.45-10.99 430.82-8.15 432.18-5.32 434.53-3.86 436.87-2.39 439.75-2.39L439.75-2.39Q441.17-2.39 442.49-2.76 443.81-3.13 444.88-3.81L444.88-3.81 446.88-8.35 449.47-8.06 448.05-1.86Q446.44-0.93 444.05-0.24 441.66 0.44 439.02 0.44ZM481.79 0L470.46 0 470.37-2.05 473.34-2.73Q473.44-2.98 473.51-3.86 473.59-4.74 473.61-6.3 473.64-7.86 473.64-10.06L473.64-10.06 473.64-18.55Q473.64-20.85 473.61-22.41 473.59-23.97 473.51-24.85 473.44-25.73 473.34-25.93L473.34-25.93 470.37-26.61 470.46-28.66 481.79-28.66 481.94-26.61 478.91-25.93Q478.81-25.73 478.74-24.83 478.67-23.93 478.64-22.36 478.62-20.8 478.62-18.55L478.62-18.55 478.62-10.06Q478.62-7.91 478.64-6.35 478.67-4.79 478.74-3.88 478.81-2.98 478.91-2.73L478.91-2.73 481.94-2.05 481.79 0ZM464.16 0L452.88 0 452.79-2.05 455.81-2.73Q455.91-2.98 455.96-3.91 456.01-4.83 456.03-6.4 456.06-7.96 456.06-10.06L456.06-10.06 456.06-18.55Q456.06-20.7 456.03-22.29 456.01-23.88 455.96-24.8 455.91-25.73 455.81-25.93L455.81-25.93 452.79-26.61 452.88-28.66 464.16-28.66 464.31-26.61 461.28-25.93Q461.19-25.73 461.11-24.85 461.04-23.97 461.01-22.41 460.99-20.85 460.99-18.55L460.99-18.55 460.99-10.06Q460.99-7.86 461.01-6.3 461.04-4.74 461.11-3.86 461.19-2.98 461.28-2.73L461.28-2.73 464.31-2.05 464.16 0ZM460.26-13.13L460.26-13.13 460.26-16.31Q461.28-16.16 463.04-16.11 464.8-16.06 467.39-16.06L467.39-16.06Q469.93-16.06 471.66-16.11 473.39-16.16 474.37-16.31L474.37-16.31 474.37-13.13Q473.29-13.23 471.66-13.28 470.02-13.33 467.39-13.33L467.39-13.33Q464.65-13.33 462.99-13.28 461.33-13.23 460.26-13.13ZM492.58 0L483.99 0 483.84-2.05 486.33-2.73 496.29-27.64 499.56-29.54 510.4-2.73 512.84-2.05 512.7 0 501.81 0 501.71-2.05 504.74-2.73 501.91-9.72 501.37-11.28 496.19-23.97 497.41-24.27 492.68-11.33 492.14-9.86 489.65-2.73 492.68-2.05 492.58 0ZM491.11-8.79L491.11-8.79 491.11-11.62Q492.04-11.57 493.51-11.5 494.97-11.43 497.22-11.43L497.22-11.43Q499.42-11.43 500.93-11.5 502.44-11.57 503.32-11.62L503.32-11.62 503.32-8.84Q501.91-8.84 500.37-8.89 498.83-8.94 497.22-8.94L497.22-8.94Q495.61-8.94 494.12-8.89 492.63-8.84 491.11-8.79ZM525.88 0L515.04 0 514.89-2.05 517.97-2.83Q517.97-3.13 517.99-3.88 518.02-4.64 518.02-5.66 518.02-6.69 518.04-7.84 518.07-8.98 518.07-10.06L518.07-10.06 518.07-18.55Q518.07-20.75 518.04-22.31 518.02-23.88 517.94-24.8 517.87-25.73 517.77-25.93L517.77-25.93 514.74-26.61 514.89-28.66 526.22-28.66Q531.15-28.66 533.67-26.88 536.18-25.1 536.18-21.48L536.18-21.48Q536.18-19.09 534.79-17.21 533.4-15.33 530.98-14.28 528.56-13.23 525.44-13.23L525.44-13.23 522.36-13.23 522.36-15.63 524.9-15.63Q527.73-15.63 529.34-17.14 530.96-18.65 530.96-21.24L530.96-21.24Q530.96-23.73 529.59-25.02 528.22-26.32 525.58-26.32L525.58-26.32 523.05-26.32Q523-26.17 522.97-25.78 522.95-25.39 522.95-24.58 522.95-23.78 522.95-22.49 522.95-21.19 522.95-19.19L522.95-19.19 522.95-10.06Q522.95-8.2 522.97-6.74 523-5.27 523.07-4.27 523.14-3.27 523.19-2.83L523.19-2.83 526.02-2.05 525.88 0ZM538.96 0.49L538.96 0.49Q536.62 0.49 534.81-0.34 533.01-1.17 531.4-3.03 529.78-4.88 528.12-8.01L528.12-8.01 525-14.01 529.2-14.99 534.62-7.08Q535.89-5.27 536.96-4.17 538.04-3.08 539.11-2.49 540.18-1.9 541.41-1.61L541.41-1.61 541.36 0.29Q540.77 0.44 540.16 0.46 539.55 0.49 538.96 0.49ZM554.63 0L543.4 0 543.26-2.05 546.29-2.73Q546.38-2.98 546.43-3.91 546.48-4.83 546.51-6.4 546.53-7.96 546.53-10.06L546.53-10.06 546.53-18.55Q546.53-20.7 546.51-22.29 546.48-23.88 546.43-24.8 546.38-25.73 546.29-25.93L546.29-25.93 543.26-26.61 543.4-28.66 554.63-28.66 554.78-26.61 551.75-25.93Q551.66-25.73 551.58-24.85 551.51-23.97 551.49-22.41 551.46-20.85 551.46-18.55L551.46-18.55 551.46-10.06Q551.46-7.86 551.49-6.3 551.51-4.74 551.58-3.86 551.66-2.98 551.75-2.73L551.75-2.73 554.78-2.05 554.63 0ZM582.95-28.91L582.95-28.91 584.08-20.75 581.59-20.51 579.63-26.03Q579.14-26.12 578.63-26.15 578.12-26.17 577.68-26.17L577.68-26.17 575.92-26.17Q575.48-26.17 574.73-26.17 573.97-26.17 573.43-26.07L573.43-26.07Q573.43-25.73 573.41-24.29 573.38-22.85 573.36-20.87 573.33-18.9 573.33-16.99L573.33-16.99 573.33-11.08Q573.33-8.11 573.38-5.86 573.43-3.61 573.48-2.73L573.48-2.73 577.63-2.15 577.53 0 564.2 0 564.06-2.15 568.21-2.73Q568.26-3.61 568.3-5.86 568.35-8.11 568.35-11.08L568.35-11.08 568.35-16.99Q568.35-18.9 568.33-20.87 568.3-22.85 568.3-24.29 568.3-25.73 568.26-26.07L568.26-26.07Q567.77-26.17 567.01-26.17 566.25-26.17 565.77-26.17L565.77-26.17 563.96-26.17Q563.47-26.17 562.98-26.15 562.49-26.12 562.01-26.03L562.01-26.03 560.05-20.41 557.61-20.7 558.64-28.91Q559.17-28.86 559.86-28.81 560.54-28.76 561.3-28.74 562.05-28.71 562.76-28.69 563.47-28.66 564.06-28.66L564.06-28.66 577.53-28.66Q578.12-28.66 578.83-28.69 579.53-28.71 580.27-28.74 581-28.76 581.68-28.81 582.37-28.86 582.95-28.91ZM591.54 0L582.95 0 582.8-2.05 585.29-2.73 595.25-27.64 598.53-29.54 609.37-2.73 611.81-2.05 611.66 0 600.77 0 600.67-2.05 603.7-2.73 600.87-9.72 600.33-11.28 595.16-23.97 596.38-24.27 591.64-11.33 591.1-9.86 588.61-2.73 591.64-2.05 591.54 0ZM590.08-8.79L590.08-8.79 590.08-11.62Q591.01-11.57 592.47-11.5 593.94-11.43 596.18-11.43L596.18-11.43Q598.38-11.43 599.89-11.5 601.41-11.57 602.29-11.62L602.29-11.62 602.29-8.84Q600.87-8.84 599.33-8.89 597.79-8.94 596.18-8.94L596.18-8.94Q594.57-8.94 593.08-8.89 591.59-8.84 590.08-8.79ZM613.61-2.05L616.69-2.73Q616.79-3.13 616.88-5.13 616.98-7.13 616.98-10.06L616.98-10.06 616.98-18.55Q616.98-21.73 616.88-23.73 616.79-25.73 616.69-26.03L616.69-26.03 613.61-26.61 613.76-28.66 626.11-28.66Q630.99-28.66 633.48-26.9 635.98-25.15 635.98-21.78L635.98-21.78Q635.98-19.09 633.8-17.26 631.63-15.43 628.11-15.14L628.11-15.14 627.87-15.53Q632.46-15.38 634.95-13.5 637.44-11.62 637.44-8.3L637.44-8.3Q637.44-4.44 634.14-2.22 630.85 0 625.09 0L625.09 0 613.76 0 613.61-2.05ZM621.86-20.12L621.86-8.64Q621.86-6.54 621.91-4.91 621.96-3.27 622.01-2.83L622.01-2.83Q622.6-2.69 623.62-2.56 624.65-2.44 625.33-2.44L625.33-2.44Q628.7-2.44 630.43-3.78 632.17-5.13 632.17-7.71L632.17-7.71Q632.17-10.6 630.31-11.99 628.46-13.38 624.74-13.38L624.74-13.38Q623.28-13.38 622.6-13.38 621.91-13.38 621.28-13.28L621.28-13.28 621.28-16.06Q622.11-16.02 622.84-15.97 623.57-15.92 624.5-15.92L624.5-15.92Q627.48-15.92 629.09-17.31 630.7-18.7 630.7-21.24L630.7-21.24Q630.7-23.68 629.21-25 627.72-26.32 624.74-26.32L624.74-26.32 621.96-26.32Q621.91-25.93 621.89-24.15 621.86-22.36 621.86-20.12L621.86-20.12ZM664.98-7.62L662.88 0.24Q662 0.2 660.95 0.15 659.9 0.1 658.9 0.05 657.9 0 657.16 0L657.16 0 641.83 0 641.69-2.05 644.76-2.73Q644.81-2.98 644.86-3.93 644.91-4.88 644.93-6.45 644.96-8.01 644.96-10.06L644.96-10.06 644.96-18.55Q644.96-20.65 644.96-22.22 644.96-23.78 644.91-24.73 644.86-25.68 644.76-25.88L644.76-25.88 641.69-26.61 641.83-28.66 654.14-28.66 654.28-26.51 650.23-25.88Q650.18-25.73 650.11-24.85 650.04-23.97 649.99-22.39 649.94-20.8 649.94-18.55L649.94-18.55 649.94-10.06Q649.94-7.42 649.99-5.59 650.04-3.76 650.08-3.17L650.08-3.17Q650.82-3.08 651.6-3.03 652.38-2.98 653.45-2.98L653.45-2.98 656.48-2.98Q657.6-2.98 658.41-3.05 659.21-3.13 659.9-3.22L659.9-3.22 662.54-8.2 664.98-7.62ZM691.34-7.13L689.29 0.29Q687.92 0.1 686.56 0.05 685.19 0 684.02 0L684.02 0 667.22 0 667.07-2.05 670.1-2.73Q670.2-2.98 670.27-3.91 670.35-4.83 670.37-6.4 670.39-7.96 670.39-10.06L670.39-10.06 670.39-18.55Q670.39-20.7 670.37-22.29 670.35-23.88 670.27-24.8 670.2-25.73 670.1-25.93L670.1-25.93 667.07-26.61 667.22-28.66 682.75-28.66Q683.48-28.66 684.46-28.69 685.43-28.71 686.46-28.76 687.48-28.81 688.41-28.91L688.41-28.91 689.49-22.17 687.09-21.83 685.38-25.98Q684.9-26.07 684.43-26.12 683.97-26.17 683.38-26.17L683.38-26.17 678.45-26.17Q677.52-26.17 676.77-26.15 676.01-26.12 675.37-26.03L675.37-26.03Q675.37-25.73 675.35-24.88 675.33-24.02 675.3-22.83 675.28-21.63 675.28-20.31L675.28-20.31 675.28-8.11Q675.28-6.93 675.3-5.86 675.33-4.79 675.35-4 675.37-3.22 675.37-2.88L675.37-2.88Q676.16-2.78 676.96-2.73 677.77-2.69 678.89-2.69L678.89-2.69 682.94-2.69Q684.07-2.69 684.73-2.71 685.38-2.73 685.75-2.78 686.12-2.83 686.41-2.88L686.41-2.88 689-7.57 691.34-7.13ZM685.87-9.91L683.63-9.91 683.09-13.23Q682.8-13.28 682.16-13.33 681.53-13.38 680.65-13.38L680.65-13.38 677.33-13.38Q676.6-13.38 675.84-13.35 675.08-13.33 674.45-13.28L674.45-13.28 674.45-16.16Q675.08-16.11 675.84-16.11 676.6-16.11 677.33-16.11L677.33-16.11 680.65-16.11Q681.53-16.11 682.16-16.14 682.8-16.16 683.09-16.16L683.09-16.16 683.63-19.53 685.87-19.53 685.87-9.91ZM728.2-28.91L728.2-28.91 729.32-20.75 726.83-20.51 724.88-26.03Q724.39-26.12 723.88-26.15 723.37-26.17 722.93-26.17L722.93-26.17 721.17-26.17Q720.73-26.17 719.97-26.17 719.22-26.17 718.68-26.07L718.68-26.07Q718.68-25.73 718.66-24.29 718.63-22.85 718.61-20.87 718.58-18.9 718.58-16.99L718.58-16.99 718.58-11.08Q718.58-8.11 718.63-5.86 718.68-3.61 718.73-2.73L718.73-2.73 722.88-2.15 722.78 0 709.45 0 709.3-2.15 713.46-2.73Q713.5-3.61 713.55-5.86 713.6-8.11 713.6-11.08L713.6-11.08 713.6-16.99Q713.6-18.9 713.58-20.87 713.55-22.85 713.55-24.29 713.55-25.73 713.5-26.07L713.5-26.07Q713.02-26.17 712.26-26.17 711.5-26.17 711.01-26.17L711.01-26.17 709.21-26.17Q708.72-26.17 708.23-26.15 707.74-26.12 707.25-26.03L707.25-26.03 705.3-20.41 702.86-20.7 703.89-28.91Q704.42-28.86 705.11-28.81 705.79-28.76 706.55-28.74 707.3-28.71 708.01-28.69 708.72-28.66 709.3-28.66L709.3-28.66 722.78-28.66Q723.37-28.66 724.08-28.69 724.78-28.71 725.52-28.74 726.25-28.76 726.93-28.81 727.62-28.86 728.2-28.91ZM743.24 0L732.4 0 732.25-2.05 735.33-2.83Q735.33-3.13 735.35-3.88 735.38-4.64 735.38-5.66 735.38-6.69 735.4-7.84 735.43-8.98 735.43-10.06L735.43-10.06 735.43-18.55Q735.43-20.75 735.4-22.31 735.38-23.88 735.3-24.8 735.23-25.73 735.13-25.93L735.13-25.93 732.11-26.61 732.25-28.66 743.58-28.66Q748.51-28.66 751.03-26.88 753.54-25.1 753.54-21.48L753.54-21.48Q753.54-19.09 752.15-17.21 750.76-15.33 748.34-14.28 745.92-13.23 742.8-13.23L742.8-13.23 739.72-13.23 739.72-15.63 742.26-15.63Q745.09-15.63 746.7-17.14 748.32-18.65 748.32-21.24L748.32-21.24Q748.32-23.73 746.95-25.02 745.58-26.32 742.95-26.32L742.95-26.32 740.41-26.32Q740.36-26.17 740.33-25.78 740.31-25.39 740.31-24.58 740.31-23.78 740.31-22.49 740.31-21.19 740.31-19.19L740.31-19.19 740.31-10.06Q740.31-8.2 740.33-6.74 740.36-5.27 740.43-4.27 740.5-3.27 740.55-2.83L740.55-2.83 743.38-2.05 743.24 0ZM756.32 0.49L756.32 0.49Q753.98 0.49 752.17-0.34 750.37-1.17 748.76-3.03 747.14-4.88 745.48-8.01L745.48-8.01 742.36-14.01 746.56-14.99 751.98-7.08Q753.25-5.27 754.32-4.17 755.4-3.08 756.47-2.49 757.54-1.9 758.77-1.61L758.77-1.61 758.72 0.29Q758.13 0.44 757.52 0.46 756.91 0.49 756.32 0.49ZM759.59-26.61L759.74-28.66 770.97-28.66 771.07-26.61 768.04-25.88Q768.04-25.59 767.99-24.78 767.94-23.97 767.92-22.49 767.89-21 767.89-18.55L767.89-18.55 767.89-11.87Q767.89-8.84 768.8-6.93 769.7-5.03 771.36-4.13 773.02-3.22 775.27-3.22L775.27-3.22Q777.42-3.22 778.98-4.13 780.54-5.03 781.37-7.01 782.2-8.98 782.2-12.11L782.2-12.11 782.2-17.68Q782.2-20.02 782.15-21.78 782.1-23.54 782.05-24.58 782.01-25.63 781.91-25.88L781.91-25.88 778.49-26.61 778.64-28.66 788.55-28.66 788.69-26.61 785.67-25.88Q785.62-25.73 785.59-24.83 785.57-23.93 785.52-22.17 785.47-20.41 785.47-17.68L785.47-17.68 785.47-11.67Q785.47-7.62 784.1-4.93 782.74-2.25 780.27-0.9 777.81 0.44 774.63 0.44L774.63 0.44Q769.02 0.44 765.94-2.59 762.86-5.62 762.86-11.18L762.86-11.18 762.86-18.55Q762.86-21.04 762.82-22.61 762.77-24.17 762.74-24.95 762.72-25.73 762.67-25.88L762.67-25.88 759.59-26.61ZM801.68 0.44L801.68 0.44Q799.58 0.44 797.24-0.1 794.89-0.63 793.38-1.51L793.38-1.51 793.09-8.15 795.53-8.35 796.99-3.76Q798.16-3.03 799.56-2.64 800.95-2.25 802.41-2.25L802.41-2.25Q804.76-2.25 806.1-3.32 807.44-4.39 807.44-6.25L807.44-6.25Q807.44-8.01 806.42-9.11 805.39-10.21 803.78-11.01 802.17-11.82 800.34-12.6 798.51-13.38 796.9-14.43 795.28-15.48 794.26-17.02 793.23-18.55 793.23-20.9L793.23-20.9Q793.23-23.34 794.6-25.22 795.97-27.1 798.43-28.15 800.9-29.2 804.12-29.2L804.12-29.2Q805.34-29.2 806.56-29.05 807.78-28.91 808.88-28.64 809.98-28.37 810.86-27.98L810.86-27.98 811.3-21.53 808.86-21.34 807.44-25.68Q805.88-26.61 803.58-26.61L803.58-26.61Q801.24-26.61 799.82-25.46 798.41-24.32 798.41-22.41L798.41-22.41Q798.41-20.7 799.43-19.56 800.46-18.41 802.1-17.55 803.73-16.7 805.59-15.92 807.44-15.14 809.08-14.11 810.71-13.09 811.74-11.6 812.76-10.11 812.76-7.86L812.76-7.86Q812.76-5.47 811.35-3.59 809.93-1.71 807.44-0.63 804.95 0.44 801.68 0.44ZM840.2-28.91L840.2-28.91 841.33-20.75 838.84-20.51 836.88-26.03Q836.39-26.12 835.88-26.15 835.37-26.17 834.93-26.17L834.93-26.17 833.17-26.17Q832.73-26.17 831.98-26.17 831.22-26.17 830.68-26.07L830.68-26.07Q830.68-25.73 830.66-24.29 830.63-22.85 830.61-20.87 830.58-18.9 830.58-16.99L830.58-16.99 830.58-11.08Q830.58-8.11 830.63-5.86 830.68-3.61 830.73-2.73L830.73-2.73 834.88-2.15 834.78 0 821.45 0 821.31-2.15 825.46-2.73Q825.51-3.61 825.55-5.86 825.6-8.11 825.6-11.08L825.6-11.08 825.6-16.99Q825.6-18.9 825.58-20.87 825.55-22.85 825.55-24.29 825.55-25.73 825.51-26.07L825.51-26.07Q825.02-26.17 824.26-26.17 823.5-26.17 823.02-26.17L823.02-26.17 821.21-26.17Q820.72-26.17 820.23-26.15 819.74-26.12 819.26-26.03L819.26-26.03 817.3-20.41 814.86-20.7 815.89-28.91Q816.42-28.86 817.11-28.81 817.79-28.76 818.55-28.74 819.3-28.71 820.01-28.69 820.72-28.66 821.31-28.66L821.31-28.66 834.78-28.66Q835.37-28.66 836.08-28.69 836.79-28.71 837.52-28.74 838.25-28.76 838.93-28.81 839.62-28.86 840.2-28.91Z" opacity="1" transform="matrix(1,0,0,1,0,0)" fill="#ffffff" class="undefined-text-0" data-fill-palette-color="primary" id="text-0"></path></svg></g></svg></g></svg></g></svg></g><g transform="matrix(1,0,0,1,179.9769747511786,0)"><svg viewBox="0 0 35.56605049764275 19.566050497642745" height="19.566050497642745" width="35.56605049764275"><g><svg xmlns="http://www.w3.org/2000/svg" xmlns:xlink="http://www.w3.org/1999/xlink" version="1.1" x="8.000000000000002" y="0" viewBox="14 14 72 72" enable-background="new 0 0 100 100" xml:space="preserve" height="19.566050497642745" width="19.566050497642745" class="icon-icon-0" data-fill-palette-color="accent" id="icon-0"><polygon points="50,14 14,41 14,86 41,86 41,59 59,59 59,86 86,86 86,41 " fill="#ff9966" data-fill-palette-color="accent"></polygon></svg></g></svg></g><g><rect width="179.9769747511786" height="1.2767631158042956" y="17.28928738183845" x="215.54302524882135" fill="#ff9966" data-fill-palette-color="accent"></rect><rect width="179.9769747511786" height="1.2767631158042956" y="17.28928738183845" x="0" fill="#ff9966" data-fill-palette-color="accent"></rect><rect width="179.9769747511786" height="1.2767631158042956" y="14.735761150229859" x="215.54302524882135" fill="#ff9966" data-fill-palette-color="accent"></rect><rect width="179.9769747511786" height="1.2767631158042956" y="14.735761150229859" x="0" fill="#ff9966" data-fill-palette-color="accent"></rect></g></svg></g></svg><rect width="395.52" height="37.066141260974334" fill="none" stroke="none" visibility="hidden"></rect></g></svg></g></svg>